<?xml version="1.0" encoding="utf-8"?>
<!-- Generator: Adobe Illustrator 29.8.2, SVG Export Plug-In . SVG Version: 9.03 Build 0)  -->
<svg version="1.0" id="katman_1" xmlns="http://www.w3.org/2000/svg" xmlns:xlink="http://www.w3.org/1999/xlink" x="0px" y="0px"
	 viewBox="0 0 847.5 601.5" style="enable-background:new 0 0 847.5 601.5;" xml:space="preserve">
<style type="text/css">
	.st0{fill:#FFFFFF;}
	.st1{fill:#020203;}
	.st2{fill:url(#SVGID_1_);stroke:#000000;stroke-width:0.1;stroke-miterlimit:10;}
	
		.st3{fill:url(#SVGID_00000078741001864296991210000007865317297227070340_);stroke:#000000;stroke-width:0.1;stroke-miterlimit:10;}
	
		.st4{fill:url(#SVGID_00000001649484654737456900000006816375942283814312_);stroke:#000000;stroke-width:0.1;stroke-miterlimit:10;}
	.st5{fill:url(#SVGID_00000106119745530920998770000017700540924834038710_);}
</style>
<g>
	<g>
		<g>
			<path class="st0" d="M641.7,383c-4.4,0-8.8,0.8-12.9,2.4l0.9-2.4h-57.2l-9.7,26.8l-8.1-26.8h-37.1h-12.5h-32.2h-12.5h-49.9
				L381,411.5l-8.6-28.5h-58.1l-2.3,6.4c-3.2-3.1-8.8-6.4-17.7-6.4h-67.5c-4.4,0-8.8,0.8-12.9,2.4l0.9-2.4H114.4
				c-6.6,0-13,1.8-19,5.3C89,392.1,84.7,397,82.5,403l-27.7,76c-2.7,7.4-1.3,14.8,3.9,20.3l0.1,0.1c4.5,4.7,10.8,7,18.6,7h79.6h12.5
				h44.7l13.8-38h10.3l-13.8,38h44.7h12.5h44.7l14.3-39.4l11,36.3l30.7-29.8l-12,32.9h44.7h12.5H460h12.5h44.7l9.7-26.8l8.1,26.8
				h49.7l2.3-6.3c4.4,4.2,10.4,6.3,17.8,6.3h92.1L728,421l13.8-38H641.7z"/>
			<path class="st1" d="M77.5,495.4c-4.7,0-8.3-1.2-10.7-3.7c-2.3-2.5-2.9-5.5-1.6-9l27.7-76c1.3-3.5,4-6.5,8.1-8.9
				c4.3-2.5,8.7-3.8,13.4-3.8h84.4l-9.2,25.3h-59.1c-2.4,0-4.6,0.6-6.8,1.9c-2,1.3-3.4,2.7-4,4.5l-13.8,38c-0.6,1.8-0.4,3.3,0.7,4.6
				c1.2,1.2,3,1.8,5.4,1.8h25.3l4.6-12.7h-16.9l9.2-25.3H185l-23,63.3H77.5z"/>
			<path class="st1" d="M172.9,495.4l32.3-88.6c1.3-3.5,4-6.5,8.1-8.9c4.3-2.5,8.7-3.8,13.4-3.8h67.5c4.7,0,8.2,1.3,10.5,3.8
				c2.4,2.5,3,5.5,1.8,8.9l-32.3,88.6h-33.8l13.8-38h-33.8l-13.8,38H172.9z M263.4,432.1l2.3-6.3c0.6-1.7,0.3-3.2-0.9-4.5
				c-1.2-1.3-3-1.9-5.2-1.9h-16.9c-2.4,0-4.6,0.6-6.7,1.9c-2,1.3-3.4,2.7-4,4.5l-2.3,6.3H263.4z"/>
			<path class="st1" d="M285.1,495.4l36.9-101.3h42.2l11.5,38l39.1-38H457l-36.9,101.3h-33.8l23-63.3l-52.2,50.7l-15.3-50.7
				l-23,63.3H285.1z"/>
			<path class="st1" d="M431,495.4l36.9-101.3h33.8l-36.9,101.3H431z"/>
			<path class="st1" d="M475.7,495.4l36.9-101.3h33.8l15.3,50.7l18.4-50.7h33.8L577,495.4h-33.8l-15.3-50.7l-18.4,50.7H475.7z"/>
			<path class="st1" d="M604.8,495.4c-4.7,0-8.3-1.2-10.7-3.7c-2.3-2.5-2.9-5.5-1.6-9l27.7-76c1.3-3.5,4-6.5,8.1-8.9
				c4.3-2.5,8.7-3.8,13.4-3.8h84.4l-9.2,25.3h-59.1c-2.4,0-4.6,0.6-6.7,1.9c-2,1.3-3.4,2.7-4,4.5l-13.8,38c-0.6,1.8-0.4,3.3,0.7,4.6
				c1.2,1.2,3,1.8,5.4,1.8h25.3l4.6-12.7h-16.9l9.2-25.3h50.6l-23,63.3H604.8z"/>
		</g>
		<g>
			<path d="M450.3,550.2c-1.3,0-2.2-0.4-2.9-1.1c-0.6-0.8-0.7-1.7-0.3-2.7l8.4-23c0.4-1.1,1.2-2,2.3-2.7c1.2-0.8,2.4-1.1,3.7-1.1
				h22.9l-2.8,7.7h-16c-0.6,0-1.3,0.2-1.9,0.6c-0.6,0.4-0.9,0.8-1.1,1.3l-4.2,11.5c-0.2,0.5-0.1,1,0.1,1.4c0.3,0.4,0.8,0.5,1.4,0.5
				h6.9l1.4-3.8h-4.6l2.8-7.7h13.7l-7,19.1H450.3z"/>
			<path d="M490.8,550.2l11.1-30.6h27.5l-2.8,7.7h-18.3l-1.4,3.8h13.7l-2.8,7.7h-13.7l-1.4,3.8H521l-2.8,7.7H490.8z"/>
			<path d="M535.8,550.2l11.1-30.6h9.2l3.6,15.3l5.6-15.3h9.2l-11.1,30.6h-9.2l-3.6-15.3l-5.6,15.3H535.8z"/>
			<path d="M580.9,550.2l2.8-7.7h9.2l-2.8,7.7H580.9z"/>
			<path d="M616.8,550.2l8.4-23H616l2.8-7.7h27.5l-2.8,7.7h-9.2l-8.4,23H616.8z"/>
			<path d="M652.7,550.2l11.1-30.6h22.9c1.3,0,2.2,0.4,2.8,1.1c0.6,0.8,0.8,1.7,0.4,2.7l-4.2,11.5c-0.4,1.1-1.2,2-2.3,2.7
				c-1.2,0.7-2.4,1.1-3.6,1.1h-2.3l2.7,11.5H671l-2.7-11.5h-2.3l-4.2,11.5H652.7z M675.7,531.1c0.6,0,1.2-0.2,1.8-0.5
				c0.6-0.4,1-0.8,1.2-1.4c0.2-0.5,0.1-1-0.2-1.3c-0.3-0.4-0.8-0.6-1.4-0.6h-6.9l-1.4,3.8H675.7z"/>
		</g>
	</g>
	<g>
		<g>
			
				<linearGradient id="SVGID_1_" gradientUnits="userSpaceOnUse" x1="3495.4736" y1="6884.8037" x2="3791.3247" y2="6884.8037" gradientTransform="matrix(1 0 0 1 -3222.4712 -6660.499)">
				<stop  offset="0" style="stop-color:#FFFFFF"/>
				<stop  offset="1" style="stop-color:#D3D3D3"/>
			</linearGradient>
			<path class="st2" d="M411.7,181.1c1.8-4,5.2-7.4,10.1-10.4c5-2.9,10.2-4.4,15.5-4.4h54.5l77.1-58.9H408.4
				c-10.3,0-20.6,2.9-30.7,8.7c-9.8,5.7-16.6,12.6-20.4,20.7l-81.7,176.8c-3.8,8.1-3.4,15.1,1.1,20.9c2.4,3,5.7,5.2,9.7,6.6
				c35.2-20.2,59.7-48.4,85.7-74.4L411.7,181.1z"/>
			
				<linearGradient id="SVGID_00000085234822150954587760000005109653029550027409_" gradientUnits="userSpaceOnUse" x1="3642.3306" y1="6928.1226" x2="3631.2078" y2="6914.0986" gradientTransform="matrix(1 0 0 1 -3222.4712 -6660.499)">
				<stop  offset="0" style="stop-color:#FFFFFF"/>
				<stop  offset="0.2544" style="stop-color:#F4F3F4"/>
				<stop  offset="1" style="stop-color:#D3D3D3"/>
			</linearGradient>
			
				<path style="fill:url(#SVGID_00000085234822150954587760000005109653029550027409_);stroke:#000000;stroke-width:0.1;stroke-miterlimit:10;" d="
				M452.5,254.7l-13.6,29.5h-56.1c-5.3,0-9.1-1.4-11.5-4.1c-2.2-2.9-2.3-6.4-0.4-10.6l1.2-2.7c-30,22.8-58.5,47.7-85.7,74.4
				c3.7,1.3,8,1.9,12.9,1.9h187.2l68.1-147.3h-0.1L397.9,248c-3.2,2.2-6.3,4.4-9.5,6.7H452.5z"/>
			
				<linearGradient id="SVGID_00000017494387502319223600000009869551221576226990_" gradientUnits="userSpaceOnUse" x1="3600.2727" y1="6911.8735" x2="3620.3621" y2="6911.8735" gradientTransform="matrix(1 0 0 1 -3222.4712 -6660.499)">
				<stop  offset="0" style="stop-color:#FFFFFF"/>
				<stop  offset="1" style="stop-color:#D3D3D3"/>
			</linearGradient>
			
				<path style="fill:url(#SVGID_00000017494387502319223600000009869551221576226990_);stroke:#000000;stroke-width:0.1;stroke-miterlimit:10;" d="
				M388.4,254.7c3.1-2.3,6.3-4.5,9.5-6.7l-20.1,6.7H388.4z"/>
		</g>
		<g>
			<path class="st1" d="M226.6,354.8c17.6-29.9,57.1-97.5,74.6-122.1l-64.5,1.9l81.5-134.4h109.5l-64.9,74.5l47.1,3l-12.7,12.9
				c-1.1,1.1-118.6,117.6-162,166.8L226.6,354.8z"/>
			
				<linearGradient id="SVGID_00000124133044073824769720000009925708189517759111_" gradientUnits="userSpaceOnUse" x1="3469.2158" y1="6882.7837" x2="3619.5129" y2="6882.7837" gradientTransform="matrix(1 0 0 1 -3222.4712 -6660.499)">
				<stop  offset="0" style="stop-color:#FFCE05"/>
				<stop  offset="1" style="stop-color:#F4961B"/>
			</linearGradient>
			<polygon style="fill:url(#SVGID_00000124133044073824769720000009925708189517759111_);" points="333.4,182.5 349.7,183.6 
				378.9,185.5 360.6,206.3 246.7,335.5 316.7,216.8 290.5,217.8 261.5,218.9 277.9,191.5 327.2,109.1 397,109.1 			"/>
		</g>
	</g>
</g>
</svg>
